<mxfile host="65bd71144e">
    <diagram id="OvY2XRzvdlbGg009bJky" name="ページ1">
        <mxGraphModel dx="2602" dy="2356" grid="1" gridSize="10" guides="1" tooltips="1" connect="1" arrows="1" fold="1" page="1" pageScale="1" pageWidth="827" pageHeight="1169" math="0" shadow="0">
            <root>
                <mxCell id="0"/>
                <mxCell id="1" parent="0"/>
                <mxCell id="2" value="" style="rounded=0;whiteSpace=wrap;html=1;fillColor=#f5f5f5;fontColor=#333333;strokeColor=#666666;" parent="1" vertex="1">
                    <mxGeometry x="80" y="40" width="680" height="1080" as="geometry"/>
                </mxCell>
                <mxCell id="43" value="ユーザー名" style="text;html=1;strokeColor=none;fillColor=none;align=center;verticalAlign=middle;whiteSpace=wrap;rounded=0;strokeWidth=2;fontSize=16;fontColor=#000000;" parent="2" vertex="1">
                    <mxGeometry x="500" y="30" width="120" height="40" as="geometry"/>
                </mxCell>
                <mxCell id="50" value="" style="html=1;verticalLabelPosition=bottom;align=center;labelBackgroundColor=#ffffff;verticalAlign=top;strokeWidth=2;strokeColor=#0080F0;shadow=0;dashed=0;shape=mxgraph.ios7.icons.user;fontSize=16;fontColor=#000000;fillColor=none;" parent="2" vertex="1">
                    <mxGeometry x="620" y="25" width="45" height="45" as="geometry"/>
                </mxCell>
                <mxCell id="51" value="" style="shape=image;imageAspect=0;aspect=fixed;verticalLabelPosition=bottom;verticalAlign=top;strokeColor=#000000;strokeWidth=2;fontSize=16;fontColor=#000000;fillColor=none;image=data:image/png,iVBORw0KGgoAAAANSUhEUgAABLAAAASwBAMAAAAZD678AAAABGdBTUEAALGPC/xhBQAAAAFzUkdCAK7OHOkAAAAkUExURUdwTK0oWW0IPmEAO6FRVmEAO/zgh6woWPvghvvgh2IAPPvgh3rAq1YAAAAKdFJOUwDMUMMhg2CMz6D2i/+7AAASt0lEQVR42uzdv2/bZhoHcEdhHBtZTsUBXaW2gQFPQZwsmpQ4aRJ7MZK7RZOHwkjhJT4c0PWGQ4BCyw2FFy+BnSyebigKH/zPXSTb+kGRFCnxh1x9PlMbS7L88qvnffiSIldWAAAAAAAAAAAAAAAAAAAAAAAAAAAAAAAAAAAAAAAAAAAAAAAAAAAAAAAAAAAAAAAAAAAAAAAAAAAAAAAAAAAAAAAAAAAAAAAAAAAAAAAAAAAAAAAAAAAAAAAAAAAAAAAAAAAAAAAAAAAAAAAAAAAAAAAAAAAAAAAAAAAAAAAAAAAAAAAAAAAAAAAAAAAAAAAAAAAAAAAAAAAAAAAAAAAAAAAAAAAAAAAAAAAAAAAAAAAAAAAAAAAAAAAAAAAAAAAAAAAAAAAAAAAAAAAAAAAAAAAAAAAAAAAAAAAAAAAAAAAAAAAAAAAAAAAAAAAAAAAAAAAAAAAAAAAAAAAAAADCXhgC8veme3nxm2EgZ+uXPf8xEOSr2w/WhYEgV2uXV/5lKMjTyXWw/mcoyFFweaNtMMi7dde+U1CLpckiVw8GwfqvwaDEYAXGiPyDtfp1p/HYKJFzsIL+6um/DRP57hUeXv1o3ziR0eogWBHpuVnk+sM4kVX3OjxRBwvXLJ4yq93r7PwePxNaPCVWcHAc3SkF8TPhoJrFLUWgleplJPpsvteXcXt+w+OImiySOqnomvX+608+Jjf2Tn0gqZGKKTw//vzTlD1GpwGSuOuXbe9OsEi2PuMZDKZCUi0pZG3Cu5p3kpzMWHkOLTeQqvJk7JUeWCAlVa90me15q3p3igjWzVz4uyEkMVhZS89VybpoG0Ly7LFWVt7osEixV5h92WD15+N9A0i0XcsGFGE94SzRno36t9ooZm+yYtZHm/V6/VuDRHavk9Y5a/WeD0aJzIKThNb9WT9Y3xglsut98fRjTB911A9W3SAxU7Ri2/OrXNW17+Q7TV4Hq2EoECwWn6mQQhwJFkVo9nM1sUIaHNX/YXCY3f1+sP4SVcj+aXSYvXs/ipoJ75sfmVMt6ojOUXQdu3bw64FxI1ShJv/lu3bMvmL0gZ7+EaKPRpJRG6lap6sj0zEnPexeuoIkUb1TI22wIo8grrocGyuRvdM36fIXE6xdtxwgphK1Uz4uMlhdV3Qg7E493Wl9QXyP5b5OTLo6qy92GSG83PDXhBbL98IYaqYN1rPYyua+TsQVohTBCmJXG9bc14nZp8L+fmFDsMgUrA8pHhq1Hi9YSyx4f3nxW1IdmvPg8roeazmdJO6wzf9dL3uFy+l18nVlXs1/fnvXOtYyToRTpqmgOff5e4dW3pfQ2tSt/mLeQrOud19ChyXMUydmwuVTRme96nyspbNayiLTG2eQClYxuwgHPxnrpTJcvXQNbQrYKSwiWC9eGF9TYf5TYdMXWAWrgAN5r1xQcpkNzxvez/mFE74OxhLoznjbnGnuuybNctst6N6Vd+ourqzJKmDhPf2pp/w5HRZz5kFTsJa9ZHULaN1VLHrXdP91NFfBxi8/CBa5a+bSc2veiVgnmH/9qWa5gYiue/5Kc2SBlNEOqx57EYYZKp+ZkPEpLIdSs+EgNEUEayXQYDE+g2mO8tM5H3hUyC/YHP6CT4K1PDYFa3QqdANVFStnVsxVrEI03Y1QxSqsydJiCVbujhQsU2EhNn6RKxULwRIsU6FgFerueQpfqn+ftfP5N5qKJViFBEvFEiwVS7AES7BMhYIlWCqWYN2SYJW5niFYgiVYgiVYgiVYgiVYgiVYgiVYgiVYgiVYgiVYgiVYgiVYf75gBQfH+4IlWHnrXXv0Yr/6YO0tcGUVrBn0b3t60RYswcrVWsQ9vza+a9+eYD1/uNX6+vSzp2+zvOmXW1+fMXrt3odb5+dbbxc2WA/ftc5D73jBg3UyeaeTo9K+AT1/sF62Rl7iaSP+gfduHtT/v++v/vvJoM+8Plvqab7BqkV3jY9SPufT5F/5pTFDsHZGfveTsjqsyVtBv8rnEpFlBKvWCW2yt9O3V6+ubYd+aTB4ndNFDNb26JMb2YM1+uErq+dZm7z/Zf9qtPXbEKx7rYlt9jhNsIbb7mxltIDFvo0ygxUMH/c5IlfxyYoN1ugofy5rJry5N9PwXifXF8ZqLH6w7kVttMcpghU+/bw2bXGj0mCF/8yzdsZgddLUu6JarMuLm3+5X+KFseYKVq0VudX+NmUbN8Y292lok0QPfUXB6r+5YOLPfJItWBN/bkXBupPXdbiLDlYnZkG1nby9GmO9bO/RwdjTP1ccrJWk1Cf9hXHB2qyiYA3vfznYLXx2S4K1HbdSfzqtYo2VgL3w+v+XxQpW1Et8zhKsoJqDGLc2WEH8MaBGcsWqhTfS5tR6UFGwvkQXrJtdjnTB2qlmEfrwtk6FO/HBOk0O1t3Qg8MR3as4WK3RYEV/fvYyBKs1LZAFB+uPUPP+YbGDFSQdtm4nPWFvM/TpD+91fVqkYG2n/+hEB+tu6t+brwcT61hBibfrmj1YiedFPEoMVmgvq70zvYOpLljRe75n6YPVmb5OUdbKe7O8q9rOHqxO1hNtBsF6G+7IOtOfXVGwzuJeILKNjAzWvSoWR/vj3Z04Vlgr7zLcMwerlnwKVzshWO/C/UqKclBZsHYy1OTIYG1WcDRnbOl99OyGV6XdrmvmYI3PhE///vDdtHEfBKtXoB4/Hz7+tF/Gno/UrQUKVifD/klUsIJKFkdHS1a5aZ47WJsTa+1j6/Cnyd3+2ejmO7uaJIKkT3ZVwYrdRTlLGaydShZHr/w43mHdjmC1Jo9wvExuk4LQht0OT52bCVug1MsYjQTrZny2tlrTJ/uoYLWqPMN79f3x/srtClYt6sPbSRz3IPTTiQPPdxPeSUXBOt8Znmb2/P/s3b1vG0caB2CFWkqR3NwZB7iVlRgGWAlw3LCiP+AD5MZIoEaVi4Pgg5v4GreujAPUpAoCqDEiqVGV4goH/OfOivXF5c4suVxyZ8Xn6WJHErX787zvzs7O9su694JgtWWFbjLBKlwIsho97ln+3+5ZcInDfILVqxCs/o31GqP33HcmCtZ+M5Oj7Q1WYevQiR73sdUo+/kfHfnipkaskRL2bOpgdRuaHG1vsG5WvcIz8ikWrJ3898h9eVrBuvqHM7J+5mSSYPWWdcCqHKzinrQXuyzM8qdqN3/Q98PRaaoUjv4mu/Hr3rFgZQ0sdW95sIqP8GbsEmhsOmE3/y3mHKyKI9aNbrEbv+4dC9ZuY5OjbQ1W4DyvThas43wMT3In5iShEes0MhVXFqx+Q3dz2husQFPajR33LH+uVvNR2Z1vsKqNWCeBv5kgWKsNTo7ermB1ziK3ZbJ85VvNf4skg7UViM5ZebD2G7ub094eayV7vr29t/fTo0c3v2y6YHXzP3kzfBoaK4XHwVmW0mB1l3VydKZgFact1qxm4UmerYUEq9KI9XvwcA3KgtVLar+eZQjWTouCtRNsAcqClS3t5Gg+WNPcyC+fhZgmWIPch0moFL4KBmurJFi7Szs5Ot9gbYWD9Sp/llYWEqxKI9Yg+DHKgtVf2snRSYN1OqdgdRYcrCoj1nG41pcEa3V5J0cbG7G22jNinVYO1v7yTo42HaxO/gckGKzfp/gFR4LVXeLJ0WULVpVSeFI1WEs911BLj/X0wfk06RfHJc9HZfmWow0j1qfwX0WD9cPZUl8TzjxiZQ/6E+/f0Mpg7VQMVvnz+IIVCdaDsyk2Bmk8WL2mgqV5ny5YWfRhaCPWUtfCGXqseK6mCdZpuiPWqzqCtYyXhTOMWPFcxYK10p4Rq55gfRKsyYP17EywJg1WWhMOD99/n3CwOmetC1ZzpTCpezr3F7L3WuUeq1djsE5v+4iV0rKZzmI2X6s6YpUOWLfkqrCmYCVUC58sZrvIqsHqnSmF0xyUdGrh19ee3E01WGctDFaDI1ZCtfDrPqT3FhmsV5Xz+PjH7edfTHoTuqEeq8kRK5mndC42uP17osEaOYQ3XrRmxLo50qe4c0PiweoHGlPBunk8U9wcK+1gdULN1K27CT1DsH4YWW+azI3opHus1VD3YB5rZCBPY9u1FwfjV4WJBmsz9FVK4dXvtLWSyOYNvw2Hn19f/+c3i3lnYbVgBbcwMI818oXNvyL94pU6nwe5JmuQZrD2A3PKmRFr9DfoNz75vjb2FoHzqff5v0WgWrBCj7F0zGMFNmZqrBZevgPsxhD18P1/VtIMVhY6y52krwr3Fx+s5je3vXxT04cF/9yZgzVyuLpK4ehnbOjlqmOV8MZLC1MOVnDb7VXNe+4z9hq+Ef3t2GtWUw5WcEexXfNYuc+42nAtfDn2YuhWBqunFOY+Y6fhG9FX7+8dvm5zsPpKYf4zNjz53t5g7QSaeleF493BK8GqFqzVM/NY+c/Y2Jt78z1Wm4PVs4J0/DP2G62Fd1rbvH8KtFiCNckFzdxtXObqz7YF66T4jwu+23I278VvdlyYrLUTpKeBSjhNsE5v84jV8OT727nd0sm2B/MM1nHhnxadu9quCk9aFayRPS4aq4X1T7x34k8nVlvdUNhL9Uo2wqitFFbd0rKZUjiyKnJn8UPW0XwGrOx8Jeq9Qc3B6heMH92y3cYaD1ZDI1an2Vq4djiXDmu95IHqmRf6XRa2Tr/sqfLaeqyWBSvyPoLFJOu3//5a/3e9X7J0fvalyWen5wfr6cXR64UP/MJHrEme8i7btq+OYO2muTvIbN6VPEU2+8MUX07o3t6jy5Bthu+5Lm2wuik+ET1ri3XxeOKg3mAFT9nOzb95vL29N5jDVWHbgpVNUa4Xn5CH3ycUrOBp3loNbw2y8B4rlWCNP72T1shzN51grfRD20B1w9v3LG0pbHjyvbxV2konWL3QGcoEK/6MSVq1sFN5s6x3c7kqHBuYrmPUr1AKb3uw4gsgm/RN5R1Cvm4M+I+6g5X1Q5tA7VcYsW57jzUy4ZBULfw6G1WlFq6XfGHVnXZ6oU38NicI1mDZRqxu00+BlcxG/VzxS++u1B6sTmjXuq5SWHCnNNVaOEOwsnexW4XV32LfKx6w8k2W5n3saO3cjmBNMdU5VbDGz/TJeD+hxyr4KCnVwvvpBWvstB0PiiKgFI5Nvqf0moonlZv3+QVr5bvRs3r14Z4phWPBGrlYTqgWrs9te79Z9l/9qTBXI8f3savCrzYTvRH9Lj4bNWEff3BQ76e6fm/v40HBnx/vJTUZSIF/Tri9X/YwvMJ943A4/LPe+p49ePQlQ48ej90gf7q9vT1w2lqRrHsT/PM/X4gcKphrjTxexq3wJFIxL54D+sVRoqw65rcozSI9/lpDDy7SMp2Cia31yKzE1UP8Wh9i7hcMTheLIP5W9P8fXQZLLSTWphcNThcT9IVN1tWuI384eIStFw1OkWBd7Z6rySLmourdFSym9mY4/HWqYD0J91gbgsWFvyaePsaDda/oD382YhG2Ed06snDEysJL46+D9T+HdrkdRgeY9cJ2Knyv+mpnt4W/VIW0rMV3u80Kq14nfK/60DwW5+6UjDDvCh9E7bx/vxXp2Bp4pwoptu5ltXCKFVobenfOHZXto/xwyiWlh43sI0+ivXukdj1/XuEq04C17Ia1v1LgjXV+3Bix6ntXxdq//+W4ClZTL0FhSa4KzQ9Qp5fu7TEPGxbmMQ9ZQy8wZElqoQkC6rXmnjHz67I+Og7U7UXFt+u8OHDsqL/rPxoOP+v4qdtfyyI+DxwIavWtaVVm6L4+fwyMSYe2aGCm68XiCa41z0xQuT2PPMd1xy1GqnoZqXZvy1Y0Q8hhpNodWcbFLB1WaFC6Xh/42pGiyoRC8aA0FCxmbLEKs3MdLPMNTOdtLFiWylPVUWx/jyNXhcw8Yn2I1EnzWFQO1i+RS8YPDhQ1Nu8renfmMd1wGTv79jGttWh/nh1aj8Vsl4V/FOfOClJmq4WBUSk7ODBeUX3I0kZRd5d1aAaUuSTrTbUHwwAAAAAAAAAAAAAAAAAAAAAAAAAAAAAAAAAAAAAAAAAAAAAAAAAAAAAAAAAAAAAAAAAAAAAAAAAAAAAAAAAAAAAAAAAAAAAAAAAAAAAAAAAAAAAAAAAAAAAAAAAAAAAAAAAAAAAAAAAAAAAAAAAAAAAAAAAAAAAAAAAAAAAAAAAAAAAAAAAAAAAAAAAAAAAAAAAAAAAAAAAAAAAAAAAAAAAAAAAAAAAAAAAAAAAAAAAAAAAAAAAAAAAAAAAAAAAAAAAAAAAAAAAAAAAAAAAAAAAAAAAAAAAAAAAAAAAAAAAAAAAAAAAAAAAAAOD/7cGBAAAAAIAgf+sFRqgAAAAAAAAAAAAAAAAAAAAAAAAAAAAAAAAAAAAAAAAAAAAAAAAAAAAAAAAAAAAAAAAAAAAAAAAAAAAAAAAAAABgBI9OW2GybAHoAAAAAElFTkSuQmCC;" parent="2" vertex="1">
                    <mxGeometry x="-10" y="-100" width="300" height="310" as="geometry"/>
                </mxCell>
                <mxCell id="7" value="" style="rounded=0;whiteSpace=wrap;html=1;fontSize=64;fontColor=#000000;fillColor=#cccccc;" parent="1" vertex="1">
                    <mxGeometry x="80" y="1040" width="680" height="80" as="geometry"/>
                </mxCell>
                <mxCell id="20" value="" style="rounded=0;whiteSpace=wrap;html=1;strokeColor=#000000;strokeWidth=2;fontSize=14;fontColor=#000000;fillColor=none;movable=1;resizable=1;rotatable=1;deletable=1;editable=1;connectable=1;" parent="1" vertex="1">
                    <mxGeometry x="590" y="1040" width="170" height="80" as="geometry"/>
                </mxCell>
                <mxCell id="29" value="" style="group" parent="20" vertex="1" connectable="0">
                    <mxGeometry x="47.5" y="10" width="75" height="70" as="geometry"/>
                </mxCell>
                <mxCell id="30" value="" style="sketch=0;pointerEvents=1;shadow=0;dashed=0;html=1;strokeColor=none;fillColor=#505050;labelPosition=center;verticalLabelPosition=bottom;verticalAlign=top;outlineConnect=0;align=center;shape=mxgraph.office.concepts.home;strokeWidth=2;fontSize=64;fontColor=#000000;" parent="29" vertex="1">
                    <mxGeometry x="12.5" width="50" height="40" as="geometry"/>
                </mxCell>
                <mxCell id="31" value="設定" style="text;html=1;strokeColor=none;fillColor=none;align=center;verticalAlign=middle;whiteSpace=wrap;rounded=0;strokeWidth=2;fontSize=14;fontColor=#000000;" parent="29" vertex="1">
                    <mxGeometry y="40" width="75" height="30" as="geometry"/>
                </mxCell>
                <mxCell id="103" value="" style="rounded=0;whiteSpace=wrap;html=1;strokeColor=#000000;strokeWidth=2;fontSize=14;fontColor=#000000;fillColor=none;movable=1;resizable=1;rotatable=1;deletable=1;editable=1;connectable=1;" vertex="1" parent="1">
                    <mxGeometry x="420" y="1040" width="170" height="80" as="geometry"/>
                </mxCell>
                <mxCell id="104" value="" style="group" vertex="1" connectable="0" parent="103">
                    <mxGeometry x="47.5" y="10" width="75" height="70" as="geometry"/>
                </mxCell>
                <mxCell id="105" value="" style="sketch=0;pointerEvents=1;shadow=0;dashed=0;html=1;strokeColor=none;fillColor=#505050;labelPosition=center;verticalLabelPosition=bottom;verticalAlign=top;outlineConnect=0;align=center;shape=mxgraph.office.concepts.home;strokeWidth=2;fontSize=64;fontColor=#000000;" vertex="1" parent="104">
                    <mxGeometry x="12.5" width="50" height="40" as="geometry"/>
                </mxCell>
                <mxCell id="106" value="グラフ" style="text;html=1;strokeColor=none;fillColor=none;align=center;verticalAlign=middle;whiteSpace=wrap;rounded=0;strokeWidth=2;fontSize=14;fontColor=#000000;" vertex="1" parent="104">
                    <mxGeometry y="40" width="75" height="30" as="geometry"/>
                </mxCell>
                <mxCell id="107" value="" style="rounded=0;whiteSpace=wrap;html=1;strokeColor=#000000;strokeWidth=2;fontSize=14;fontColor=#000000;fillColor=none;movable=1;resizable=1;rotatable=1;deletable=1;editable=1;connectable=1;" vertex="1" parent="1">
                    <mxGeometry x="250" y="1040" width="170" height="80" as="geometry"/>
                </mxCell>
                <mxCell id="108" value="" style="group" vertex="1" connectable="0" parent="107">
                    <mxGeometry x="47.5" y="10" width="75" height="70" as="geometry"/>
                </mxCell>
                <mxCell id="109" value="" style="sketch=0;pointerEvents=1;shadow=0;dashed=0;html=1;strokeColor=none;fillColor=#505050;labelPosition=center;verticalLabelPosition=bottom;verticalAlign=top;outlineConnect=0;align=center;shape=mxgraph.office.concepts.home;strokeWidth=2;fontSize=64;fontColor=#000000;" vertex="1" parent="108">
                    <mxGeometry x="12.5" width="50" height="40" as="geometry"/>
                </mxCell>
                <mxCell id="110" value="支出" style="text;html=1;strokeColor=none;fillColor=none;align=center;verticalAlign=middle;whiteSpace=wrap;rounded=0;strokeWidth=2;fontSize=14;fontColor=#000000;" vertex="1" parent="108">
                    <mxGeometry y="40" width="75" height="30" as="geometry"/>
                </mxCell>
                <mxCell id="111" value="" style="rounded=0;whiteSpace=wrap;html=1;strokeColor=#000000;strokeWidth=2;fontSize=14;fontColor=#000000;fillColor=none;movable=1;resizable=1;rotatable=1;deletable=1;editable=1;connectable=1;" vertex="1" parent="1">
                    <mxGeometry x="80" y="1040" width="170" height="80" as="geometry"/>
                </mxCell>
                <mxCell id="112" value="" style="group" vertex="1" connectable="0" parent="111">
                    <mxGeometry x="47.5" y="10" width="75" height="70" as="geometry"/>
                </mxCell>
                <mxCell id="113" value="" style="sketch=0;pointerEvents=1;shadow=0;dashed=0;html=1;strokeColor=none;fillColor=#505050;labelPosition=center;verticalLabelPosition=bottom;verticalAlign=top;outlineConnect=0;align=center;shape=mxgraph.office.concepts.home;strokeWidth=2;fontSize=64;fontColor=#000000;" vertex="1" parent="112">
                    <mxGeometry x="12.5" width="50" height="40" as="geometry"/>
                </mxCell>
                <mxCell id="114" value="収入" style="text;html=1;strokeColor=none;fillColor=none;align=center;verticalAlign=middle;whiteSpace=wrap;rounded=0;strokeWidth=2;fontSize=14;fontColor=#000000;" vertex="1" parent="112">
                    <mxGeometry y="40" width="75" height="30" as="geometry"/>
                </mxCell>
            </root>
        </mxGraphModel>
    </diagram>
</mxfile>